# xmcd
#
# Track frame offsets: 
#        150
#        14817
#        30356
#        48163
#        62935
#        77983
#        100668
#        118485
#        129496
#        142326
#        161865
#        178271
#        192959
#        207981
#        220916
#
# Disc length: 3149 seconds
#
# Revision: 2
# Processed by: cddbd v1.5.2PL0 Copyright (c) Steve Scherf et al.
# Submitted via: ExactAudioCopy v1.3
#
DISCID=ea0c4b0f
DTITLE=Ipanapa - Napakympit! [CD1)
DYEAR=2011
DGENRE=Pop
TTITLE0=Uusi Fantasia feat. Freeman - Naurava monni
TTITLE1=Haloo Helsinki! - Potkulaudalla Pariisin
TTITLE2=Tuure Kilpeläinen - Kuningas Ei
TTITLE3=Maritta Kuula - Kaksi matoa
TTITLE4=Siiri Nordin and Aleksandra Babitzin - Pölkkypää ei käytä kypärä
TTITLE4=ä
TTITLE5=Ufo Mustonen - Lastenhuoneen kapina
TTITLE6=Irina Björklund and Peter Franzén - Joulupukki rakkauden tuo
TTITLE7=Mikki Kauste - Tilulilulei
TTITLE8=Janna - Et sä mua määrää
TTITLE9=Pariisin kevät - Teippileikki
TTITLE10=Anna Järvinen - Onnenpäivänen
TTITLE11=Tea ja Kana - Mehudisco
TTITLE12=Paukkumaissi - Porsaita äidin oomme kaikki
TTITLE13=Essi Wuorela - Kuinka ihmeessä nukkuukaan hauki
TTITLE14=Magnus Carlson - Den blåa drömmen
EXTD=
EXTT0=
EXTT1=
EXTT2=
EXTT3=
EXTT4=
EXTT5=
EXTT6=
EXTT7=
EXTT8=
EXTT9=
EXTT10=
EXTT11=
EXTT12=
EXTT13=
EXTT14=
PLAYORDER=
